<mxfile host="Electron" modified="2023-07-25T17:55:32.007Z" agent="Mozilla/5.0 (Windows NT 10.0; Win64; x64) AppleWebKit/537.36 (KHTML, like Gecko) draw.io/21.6.1 Chrome/112.0.5615.204 Electron/24.6.1 Safari/537.36" etag="EznJbVxRQhGdj6NE46Y0" version="21.6.1" type="device">
  <diagram name="Page-1" id="GmxFD7qq1pCN-UBQIBSm">
    <mxGraphModel dx="1098" dy="820" grid="1" gridSize="10" guides="1" tooltips="1" connect="1" arrows="1" fold="1" page="1" pageScale="1" pageWidth="850" pageHeight="1100" math="0" shadow="0">
      <root>
        <mxCell id="0" />
        <mxCell id="1" parent="0" />
        <mxCell id="XKUwSvTRAe9h4P01zuQs-1" value="&lt;b style=&quot;font-size: 18px;&quot;&gt;Order Service&lt;br&gt;&lt;br&gt;8081&lt;/b&gt;" style="whiteSpace=wrap;html=1;aspect=fixed;" vertex="1" parent="1">
          <mxGeometry x="120" y="330" width="180" height="180" as="geometry" />
        </mxCell>
        <mxCell id="XKUwSvTRAe9h4P01zuQs-3" value="Inter Process communication" style="rounded=0;whiteSpace=wrap;html=1;fontSize=25;fontStyle=1" vertex="1" parent="1">
          <mxGeometry x="210" y="100" width="420" height="60" as="geometry" />
        </mxCell>
        <mxCell id="XKUwSvTRAe9h4P01zuQs-4" value="&lt;b style=&quot;font-size: 18px;&quot;&gt;Inventory Service&lt;br style=&quot;font-size: 18px;&quot;&gt;&lt;br style=&quot;font-size: 18px;&quot;&gt;8082&lt;/b&gt;" style="whiteSpace=wrap;html=1;aspect=fixed;fontSize=18;" vertex="1" parent="1">
          <mxGeometry x="580" y="330" width="180" height="180" as="geometry" />
        </mxCell>
        <mxCell id="XKUwSvTRAe9h4P01zuQs-6" value="" style="endArrow=classic;html=1;rounded=0;exitX=1;exitY=0.294;exitDx=0;exitDy=0;exitPerimeter=0;entryX=-0.017;entryY=0.289;entryDx=0;entryDy=0;entryPerimeter=0;fontSize=20;fontStyle=1" edge="1" parent="1" source="XKUwSvTRAe9h4P01zuQs-1" target="XKUwSvTRAe9h4P01zuQs-4">
          <mxGeometry width="50" height="50" relative="1" as="geometry">
            <mxPoint x="400" y="430" as="sourcePoint" />
            <mxPoint x="570" y="383" as="targetPoint" />
          </mxGeometry>
        </mxCell>
        <mxCell id="XKUwSvTRAe9h4P01zuQs-7" value="&lt;span style=&quot;font-size: 18px;&quot;&gt;HTTP Request&lt;/span&gt;" style="text;html=1;strokeColor=none;fillColor=none;align=center;verticalAlign=middle;whiteSpace=wrap;rounded=0;fontStyle=1;fontSize=18;" vertex="1" parent="1">
          <mxGeometry x="360" y="340" width="170" height="30" as="geometry" />
        </mxCell>
        <mxCell id="XKUwSvTRAe9h4P01zuQs-8" value="" style="endArrow=classic;html=1;rounded=0;exitX=0;exitY=0.711;exitDx=0;exitDy=0;exitPerimeter=0;entryX=1.006;entryY=0.711;entryDx=0;entryDy=0;entryPerimeter=0;fontSize=20;fontStyle=1" edge="1" parent="1" source="XKUwSvTRAe9h4P01zuQs-4" target="XKUwSvTRAe9h4P01zuQs-1">
          <mxGeometry width="50" height="50" relative="1" as="geometry">
            <mxPoint x="310" y="393" as="sourcePoint" />
            <mxPoint x="587" y="392" as="targetPoint" />
          </mxGeometry>
        </mxCell>
        <mxCell id="XKUwSvTRAe9h4P01zuQs-9" value="&lt;span style=&quot;font-size: 18px;&quot;&gt;Response&lt;/span&gt;" style="text;html=1;strokeColor=none;fillColor=none;align=center;verticalAlign=middle;whiteSpace=wrap;rounded=0;fontStyle=1;fontSize=18;" vertex="1" parent="1">
          <mxGeometry x="360" y="470" width="170" height="30" as="geometry" />
        </mxCell>
        <mxCell id="XKUwSvTRAe9h4P01zuQs-10" value="&lt;font style=&quot;font-size: 31px;&quot;&gt;&lt;b&gt;Synchronous communication&lt;/b&gt;&lt;/font&gt;" style="text;html=1;strokeColor=none;fillColor=none;align=center;verticalAlign=middle;whiteSpace=wrap;rounded=0;" vertex="1" parent="1">
          <mxGeometry x="150" y="590" width="560" height="30" as="geometry" />
        </mxCell>
      </root>
    </mxGraphModel>
  </diagram>
</mxfile>
